<svg version="1.1" viewBox="0 0 1024 1024" xmlns="http://www.w3.org/2000/svg">
  <g transform="scale(1, -1) translate(0, -900)">
    <style type="text/css">
        .stroke1 {fill: #FFFFFF;}
        .stroke2 {fill: #FFFFFF;}
        .stroke3 {fill: #FFFFFF;}
        .stroke4 {fill: #FFFFFF;}
        .stroke5 {fill: #FFFFFF;}
        .stroke6 {fill: #FFFFFF;}
        .stroke7 {fill: #FFFFFF;}
        .stroke8 {fill: #FFFFFF;}
        .stroke9 {fill: #FFFFFF;}
        .stroke10 {fill: #FFFFFF;}
        .stroke11 {fill: #FFFFFF;}
        .stroke12 {fill: #FFFFFF;}
        .stroke13 {fill: #FFFFFF;}
        .stroke14 {fill: #FFFFFF;}
        .stroke15 {fill: #FFFFFF;}
        .stroke16 {fill: #FFFFFF;}
        .stroke17 {fill: #FFFFFF;}
        .stroke18 {fill: #FFFFFF;}
        .stroke19 {fill: #FFFFFF;}
        .stroke20 {fill: #FFFFFF;}
        text {
            font-family: Helvetica;
            font-size: 50px;
            fill: #FFFFFF;}
            paint-order: stroke;
            stroke: #000000;
            stroke-width: 4px;
            stroke-linecap: butt;
            stroke-linejoin: miter;
            font-weight: 800;
        }
    </style>

    <path d="M 441 666 Q 490 726 523 749 Q 525 750 526 751 Q 547 768 509 808 Q 486 830 469 833 Q 451 834 456 811 Q 461 792 441 757 Q 396 672 248 545 Q 232 535 232 528 Q 233 521 242 521 Q 288 521 423 651 L 441 666 Z" class="stroke1"/>
    <path d="M 527 467 L 604 554 Q 653 615 705 653 Q 723 664 710 678 Q 696 692 655 714 Q 647 717 596 703 Q 454 668 441 666 C 412 660 408 659 423 651 Q 427 647 433 645 Q 457 637 541 651 Q 596 661 600 657 Q 604 653 598 639 Q 568 583 496 462 Q 521 466 527 467 Z" class="stroke2"/>
</g></svg>