<svg version="1.1" viewBox="0 0 1024 1024" xmlns="http://www.w3.org/2000/svg">
  <g transform="scale(1, -1) translate(0, -900)">
    <style type="text/css">
        .stroke1 {fill: #FFFFFF;}
        .stroke2 {fill: #FFFFFF;}
        .stroke3 {fill: #FFFFFF;}
        .stroke4 {fill: #FFFFFF;}
        .stroke5 {fill: #FFFFFF;}
        .stroke6 {fill: #FFFFFF;}
        .stroke7 {fill: #FFFFFF;}
        .stroke8 {fill: #FFFFFF;}
        .stroke9 {fill: #FFFFFF;}
        .stroke10 {fill: #FFFFFF;}
        .stroke11 {fill: #FFFFFF;}
        .stroke12 {fill: #FFFFFF;}
        .stroke13 {fill: #FFFFFF;}
        .stroke14 {fill: #FFFFFF;}
        .stroke15 {fill: #FFFFFF;}
        .stroke16 {fill: #FFFFFF;}
        .stroke17 {fill: #FFFFFF;}
        .stroke18 {fill: #FFFFFF;}
        .stroke19 {fill: #FFFFFF;}
        .stroke20 {fill: #FFFFFF;}
        text {
            font-family: Helvetica;
            font-size: 50px;
            fill: #FFFFFF;}
            paint-order: stroke;
            stroke: #000000;
            stroke-width: 4px;
            stroke-linecap: butt;
            stroke-linejoin: miter;
            font-weight: 800;
        }
    </style>

    <path d="M 525 690 Q 662 708 914 709 Q 938 710 943 719 Q 951 733 930 750 Q 864 799 793 778 Q 584 736 164 680 Q 139 677 157 657 Q 174 642 194 635 Q 202 633 209 633 Q 226 631 261 641 Q 356 666 478 682 L 525 690 Z" class="stroke1"/>
    <path d="M 474 510 L 552 610 Q 559 615 562 621 Q 574 646 525 690 C 504 712 479 712 478 682 Q 482 649 466 600 Q 465 598 463 594 Q 445 563 429 546 Q 425 543 421 534 Q 404 504 390 488 Q 383 480 382 472 Q 382 456 421 427 Q 425 424 433 424 Q 455 424 470 435 Q 479 437 488 438 L 667 476 Q 686 480 696 469 Q 703 455 692 424 Q 629 171 572 130 Q 557 120 539 125 Q 523 131 463 175 Q 447 186 445 177 Q 444 166 458 147 Q 492 88 508 44 Q 512 31 515 25 Q 532 -2 585 27 Q 623 56 651 110 Q 686 176 750 374 Q 760 405 773 425 Q 778 433 797 453 Q 808 464 805 476 Q 801 494 725 535 Q 700 548 677 534 Q 603 501 496 498 Q 490 496 486 496 Q 469 495 474 510 Z" class="stroke2"/>
</g></svg>