<svg version="1.1" viewBox="0 0 1024 1024" xmlns="http://www.w3.org/2000/svg">
  <g transform="scale(1, -1) translate(0, -900)">
    <style type="text/css">
        .stroke1 {fill: #FFFFFF;}
        .stroke2 {fill: #FFFFFF;}
        .stroke3 {fill: #FFFFFF;}
        .stroke4 {fill: #FFFFFF;}
        .stroke5 {fill: #FFFFFF;}
        .stroke6 {fill: #FFFFFF;}
        .stroke7 {fill: #FFFFFF;}
        .stroke8 {fill: #FFFFFF;}
        .stroke9 {fill: #FFFFFF;}
        .stroke10 {fill: #FFFFFF;}
        .stroke11 {fill: #FFFFFF;}
        .stroke12 {fill: #FFFFFF;}
        .stroke13 {fill: #FFFFFF;}
        .stroke14 {fill: #FFFFFF;}
        .stroke15 {fill: #FFFFFF;}
        .stroke16 {fill: #FFFFFF;}
        .stroke17 {fill: #FFFFFF;}
        .stroke18 {fill: #FFFFFF;}
        .stroke19 {fill: #FFFFFF;}
        .stroke20 {fill: #FFFFFF;}
        text {
            font-family: Helvetica;
            font-size: 50px;
            fill: #FFFFFF;}
            paint-order: stroke;
            stroke: #000000;
            stroke-width: 4px;
            stroke-linecap: butt;
            stroke-linejoin: miter;
            font-weight: 800;
        }
    </style>

    <path d="M 515 137 L 527 461 Q 538 688 549 716 Q 564 741 546 759 Q 507 790 480 800 Q 450 811 427 794 Q 425 790 424 788 Q 423 782 431 763 Q 458 710 458 629 L 458 132 C 458 102 514 107 515 137 Z" class="stroke1"/>
    <path d="M 98 106 Q 81 106 80 94 Q 80 93 80 91 Q 82 73 109 57 Q 149 31 196 42 Q 314 82 670 100 Q 749 104 827 98 L 924 86 Q 961 82 967 91 Q 978 106 963 121 Q 929 153 882 175 Q 866 182 837 173 Q 798 165 515 137 L 458 132 Q 382 127 267 115 Q 167 104 98 106 Z" class="stroke2"/>
</g></svg>