<svg version="1.1" viewBox="0 0 1024 1024" xmlns="http://www.w3.org/2000/svg">
  <g transform="scale(1, -1) translate(0, -900)">
    <style type="text/css">
        .stroke1 {fill: #FFFFFF;}
        .stroke2 {fill: #FFFFFF;}
        .stroke3 {fill: #FFFFFF;}
        .stroke4 {fill: #FFFFFF;}
        .stroke5 {fill: #FFFFFF;}
        .stroke6 {fill: #FFFFFF;}
        .stroke7 {fill: #FFFFFF;}
        .stroke8 {fill: #FFFFFF;}
        .stroke9 {fill: #FFFFFF;}
        .stroke10 {fill: #FFFFFF;}
        .stroke11 {fill: #FFFFFF;}
        .stroke12 {fill: #FFFFFF;}
        .stroke13 {fill: #FFFFFF;}
        .stroke14 {fill: #FFFFFF;}
        .stroke15 {fill: #FFFFFF;}
        .stroke16 {fill: #FFFFFF;}
        .stroke17 {fill: #FFFFFF;}
        .stroke18 {fill: #FFFFFF;}
        .stroke19 {fill: #FFFFFF;}
        .stroke20 {fill: #FFFFFF;}
        text {
            font-family: Helvetica;
            font-size: 50px;
            fill: #FFFFFF;}
            paint-order: stroke;
            stroke: #000000;
            stroke-width: 4px;
            stroke-linecap: butt;
            stroke-linejoin: miter;
            font-weight: 800;
        }
    </style>

    <path d="M 515 348 Q 567 421 600 512 Q 660 666 685 699 Q 701 718 683 734 Q 632 788 601 782 Q 583 779 587 760 Q 609 685 540 512 Q 519 466 477 393 L 446 349 Q 329 202 162 140 L 120 120 Q 102 111 116 106 Q 134 102 178 110 Q 266 132 340 179 Q 422 225 468 287 Q 474 297 481 305 L 515 348 Z" class="stroke1"/>
    <path d="M 481 305 Q 653 95 727 78 Q 757 75 921 77 Q 942 77 961 83 Q 971 93 954 106 Q 932 118 755 171 Q 656 198 550 312 Q 532 330 515 348 L 477 393 Q 413 471 346 569 Q 316 614 260 629 Q 241 633 225 624 Q 215 614 229 600 Q 241 590 253 583 Q 283 568 445 351 L 446 349 L 481 305 Z" class="stroke2"/>
</g></svg>