<svg version="1.1" viewBox="0 0 1024 1024" xmlns="http://www.w3.org/2000/svg">
  <g transform="scale(1, -1) translate(0, -900)">
    <style type="text/css">
        .stroke1 {fill: #FFFFFF;}
        .stroke2 {fill: #FFFFFF;}
        .stroke3 {fill: #FFFFFF;}
        .stroke4 {fill: #FFFFFF;}
        .stroke5 {fill: #FFFFFF;}
        .stroke6 {fill: #FFFFFF;}
        .stroke7 {fill: #FFFFFF;}
        .stroke8 {fill: #FFFFFF;}
        .stroke9 {fill: #FFFFFF;}
        .stroke10 {fill: #FFFFFF;}
        .stroke11 {fill: #FFFFFF;}
        .stroke12 {fill: #FFFFFF;}
        .stroke13 {fill: #FFFFFF;}
        .stroke14 {fill: #FFFFFF;}
        .stroke15 {fill: #FFFFFF;}
        .stroke16 {fill: #FFFFFF;}
        .stroke17 {fill: #FFFFFF;}
        .stroke18 {fill: #FFFFFF;}
        .stroke19 {fill: #FFFFFF;}
        .stroke20 {fill: #FFFFFF;}
        text {
            font-family: Helvetica;
            font-size: 50px;
            fill: #FFFFFF;}
            paint-order: stroke;
            stroke: #000000;
            stroke-width: 4px;
            stroke-linecap: butt;
            stroke-linejoin: miter;
            font-weight: 800;
        }
    </style>

    <path d="M 437 544 Q 477 516 519 483 Q 535 470 552 472 Q 564 473 569 488 Q 573 504 560 537 Q 545 576 428 596 Q 410 599 404 595 Q 398 591 401 577 Q 407 564 437 544 Z" class="stroke1"/>
    <path d="M 325 335 Q 608 398 854 376 Q 887 376 891 382 Q 898 395 886 408 Q 855 436 809 456 Q 799 459 650 430 Q 611 430 315 390 Q 254 380 160 378 Q 147 378 145 366 Q 144 353 164 338 Q 182 325 214 313 Q 226 309 244 318 Q 259 322 325 335 Z" class="stroke2"/>
</g></svg>