<svg version="1.1" viewBox="0 0 1024 1024" xmlns="http://www.w3.org/2000/svg">
  <g transform="scale(1, -1) translate(0, -900)">
    <style type="text/css">
        .stroke1 {fill: #FFFFFF;}
        .stroke2 {fill: #FFFFFF;}
        .stroke3 {fill: #FFFFFF;}
        .stroke4 {fill: #FFFFFF;}
        .stroke5 {fill: #FFFFFF;}
        .stroke6 {fill: #FFFFFF;}
        .stroke7 {fill: #FFFFFF;}
        .stroke8 {fill: #FFFFFF;}
        .stroke9 {fill: #FFFFFF;}
        .stroke10 {fill: #FFFFFF;}
        .stroke11 {fill: #FFFFFF;}
        .stroke12 {fill: #FFFFFF;}
        .stroke13 {fill: #FFFFFF;}
        .stroke14 {fill: #FFFFFF;}
        .stroke15 {fill: #FFFFFF;}
        .stroke16 {fill: #FFFFFF;}
        .stroke17 {fill: #FFFFFF;}
        .stroke18 {fill: #FFFFFF;}
        .stroke19 {fill: #FFFFFF;}
        .stroke20 {fill: #FFFFFF;}
        text {
            font-family: Helvetica;
            font-size: 50px;
            fill: #FFFFFF;}
            paint-order: stroke;
            stroke: #000000;
            stroke-width: 4px;
            stroke-linecap: butt;
            stroke-linejoin: miter;
            font-weight: 800;
        }
    </style>

    <path d="M 472 738 Q 514 704 559 662 Q 575 647 594 648 Q 607 649 612 665 Q 618 683 607 717 Q 597 759 466 795 Q 447 799 440 796 Q 434 792 436 775 Q 440 762 472 738 Z" class="stroke1"/>
    <path d="M 364 458 Q 533 497 898 497 Q 926 497 932 507 Q 939 522 918 539 Q 849 590 778 568 Q 552 525 131 471 Q 106 468 125 447 Q 141 431 164 424 Q 189 418 209 424 Q 264 440 322 450 L 364 458 Z" class="stroke2"/>
    <path d="M 322 450 Q 349 392 328 206 Q 324 166 299 131 Q 289 115 297 94 Q 304 72 314 63 Q 324 54 342 67 Q 402 107 493 128 Q 598 149 799 151 Q 827 151 829 165 Q 828 181 794 205 Q 776 220 677 200 Q 619 191 569 184 Q 493 178 403 158 Q 379 152 378 168 Q 384 261 387 379 Q 387 404 390 419 Q 394 431 384 443 Q 378 450 364 458 C 340 476 313 479 322 450 Z" class="stroke3"/>
</g></svg>