<svg version="1.1" viewBox="0 0 1024 1024" xmlns="http://www.w3.org/2000/svg">
  <g transform="scale(1, -1) translate(0, -900)">
    <style type="text/css">
        .stroke1 {fill: #FFFFFF;}
        .stroke2 {fill: #FFFFFF;}
        .stroke3 {fill: #FFFFFF;}
        .stroke4 {fill: #FFFFFF;}
        .stroke5 {fill: #FFFFFF;}
        .stroke6 {fill: #FFFFFF;}
        .stroke7 {fill: #FFFFFF;}
        .stroke8 {fill: #FFFFFF;}
        .stroke9 {fill: #FFFFFF;}
        .stroke10 {fill: #FFFFFF;}
        .stroke11 {fill: #FFFFFF;}
        .stroke12 {fill: #FFFFFF;}
        .stroke13 {fill: #FFFFFF;}
        .stroke14 {fill: #FFFFFF;}
        .stroke15 {fill: #FFFFFF;}
        .stroke16 {fill: #FFFFFF;}
        .stroke17 {fill: #FFFFFF;}
        .stroke18 {fill: #FFFFFF;}
        .stroke19 {fill: #FFFFFF;}
        .stroke20 {fill: #FFFFFF;}
        text {
            font-family: Helvetica;
            font-size: 50px;
            fill: #FFFFFF;}
            paint-order: stroke;
            stroke: #000000;
            stroke-width: 4px;
            stroke-linecap: butt;
            stroke-linejoin: miter;
            font-weight: 800;
        }
    </style>

    <path d="M 532 697 Q 460 531 279 320 Q 269 310 266 303 Q 262 291 277 294 Q 316 298 426 437 Q 436 450 449 465 L 472 494 Q 515 552 562 626 Q 592 678 618 705 Q 628 715 623 730 Q 619 743 589 768 Q 561 787 542 787 Q 523 786 531 762 Q 546 726 532 697 Z" class="stroke1"/>
    <path d="M 449 465 Q 473 399 475 391 Q 474 390 475 387 Q 481 239 453 119 Q 438 70 475 22 Q 476 19 480 16 Q 499 0 511 28 Q 526 70 526 118 Q 523 349 530 401 Q 537 429 527 440 Q 509 462 495 476 Q 485 486 472 494 C 447 511 439 493 449 465 Z" class="stroke2"/>
</g></svg>