<svg version="1.1" viewBox="0 0 1024 1024" xmlns="http://www.w3.org/2000/svg">
  <g transform="scale(1, -1) translate(0, -900)">
    <style type="text/css">
        .stroke1 {fill: #FFFFFF;}
        .stroke2 {fill: #FFFFFF;}
        .stroke3 {fill: #FFFFFF;}
        .stroke4 {fill: #FFFFFF;}
        .stroke5 {fill: #FFFFFF;}
        .stroke6 {fill: #FFFFFF;}
        .stroke7 {fill: #FFFFFF;}
        .stroke8 {fill: #FFFFFF;}
        .stroke9 {fill: #FFFFFF;}
        .stroke10 {fill: #FFFFFF;}
        .stroke11 {fill: #FFFFFF;}
        .stroke12 {fill: #FFFFFF;}
        .stroke13 {fill: #FFFFFF;}
        .stroke14 {fill: #FFFFFF;}
        .stroke15 {fill: #FFFFFF;}
        .stroke16 {fill: #FFFFFF;}
        .stroke17 {fill: #FFFFFF;}
        .stroke18 {fill: #FFFFFF;}
        .stroke19 {fill: #FFFFFF;}
        .stroke20 {fill: #FFFFFF;}
        text {
            font-family: Helvetica;
            font-size: 50px;
            fill: #FFFFFF;}
            paint-order: stroke;
            stroke: #000000;
            stroke-width: 4px;
            stroke-linecap: butt;
            stroke-linejoin: miter;
            font-weight: 800;
        }
    </style>

    <path d="M 244 513 Q 290 573 343 649 Q 374 701 401 727 Q 411 737 407 752 Q 403 767 373 792 Q 345 813 325 813 Q 304 812 313 788 Q 326 752 312 723 Q 237 558 52 353 Q 42 343 39 336 Q 35 323 50 326 Q 86 330 195 455 Q 198 462 216 480 L 244 513 Z" class="stroke1"/>
    <path d="M 216 480 Q 238 440 240 361 Q 240 237 213 123 Q 198 74 235 26 Q 236 23 240 20 Q 259 4 271 32 Q 286 74 286 122 Q 286 369 294 425 Q 301 453 291 464 Q 273 486 259 500 Q 252 507 244 513 C 221 532 203 507 216 480 Z" class="stroke2"/>
    <path d="M 648 425 Q 673 431 881 463 Q 894 462 905 476 Q 906 491 879 502 Q 837 526 778 507 Q 717 491 657 475 Q 653 475 649 472 L 597 461 Q 531 451 361 426 Q 327 422 353 401 Q 392 371 437 382 Q 509 400 597 415 L 648 425 Z" class="stroke3"/>
    <path d="M 640 191 Q 644 312 648 425 L 649 472 Q 649 616 676 733 Q 680 746 655 764 Q 612 786 583 790 Q 564 794 554 784 Q 545 774 555 756 Q 591 707 591 671 Q 595 571 597 461 L 597 415 Q 596 304 591 183 C 590 153 639 161 640 191 Z" class="stroke4"/>
    <path d="M 591 183 Q 503 170 400 154 Q 379 153 395 135 Q 426 107 465 116 Q 597 150 835 151 Q 854 152 860 160 Q 864 172 848 186 Q 788 228 731 209 Q 692 202 640 191 L 591 183 Z" class="stroke5"/>
</g></svg>