<svg version="1.1" viewBox="0 0 1024 1024" xmlns="http://www.w3.org/2000/svg">
  <g transform="scale(1, -1) translate(0, -900)">
    <style type="text/css">
        .stroke1 {fill: #FFFFFF;}
        .stroke2 {fill: #FFFFFF;}
        .stroke3 {fill: #FFFFFF;}
        .stroke4 {fill: #FFFFFF;}
        .stroke5 {fill: #FFFFFF;}
        .stroke6 {fill: #FFFFFF;}
        .stroke7 {fill: #FFFFFF;}
        .stroke8 {fill: #FFFFFF;}
        .stroke9 {fill: #FFFFFF;}
        .stroke10 {fill: #FFFFFF;}
        .stroke11 {fill: #FFFFFF;}
        .stroke12 {fill: #FFFFFF;}
        .stroke13 {fill: #FFFFFF;}
        .stroke14 {fill: #FFFFFF;}
        .stroke15 {fill: #FFFFFF;}
        .stroke16 {fill: #FFFFFF;}
        .stroke17 {fill: #FFFFFF;}
        .stroke18 {fill: #FFFFFF;}
        .stroke19 {fill: #FFFFFF;}
        .stroke20 {fill: #FFFFFF;}
        text {
            font-family: Helvetica;
            font-size: 50px;
            fill: #FFFFFF;}
            paint-order: stroke;
            stroke: #000000;
            stroke-width: 4px;
            stroke-linecap: butt;
            stroke-linejoin: miter;
            font-weight: 800;
        }
    </style>

    <path d="M 472 702 Q 502 677 534 645 Q 552 629 572 630 Q 585 631 592 649 Q 598 668 585 705 Q 578 727 541 744 Q 447 771 436 764 Q 429 758 432 742 Q 436 729 472 702 Z" class="stroke1"/>
    <path d="M 128 467 Q 103 464 121 443 Q 137 427 159 419 Q 184 412 205 418 Q 427 478 848 478 Q 875 478 901 477 Q 925 477 931 487 Q 938 502 918 519 Q 846 571 778 551 Q 514 509 128 467 Z" class="stroke2"/>
    <path d="M 346 344 Q 342 241 202 138 Q 169 116 152 101 Q 139 86 157 88 Q 220 85 332 184 Q 405 257 428 279 Q 443 291 430 311 Q 391 359 360 361 Q 347 361 346 344 Z" class="stroke3"/>
    <path d="M 611 302 Q 675 223 752 114 Q 767 86 785 79 Q 795 76 806 87 Q 822 100 815 155 Q 811 224 623 335 Q 620 338 618 338 Q 608 347 603 332 Q 600 316 611 302 Z" class="stroke4"/>
</g></svg>