<svg version="1.1" viewBox="0 0 1024 1024" xmlns="http://www.w3.org/2000/svg">
  <g transform="scale(1, -1) translate(0, -900)">
    <style type="text/css">
        .stroke1 {fill: #FFFFFF;}
        .stroke2 {fill: #FFFFFF;}
        .stroke3 {fill: #FFFFFF;}
        .stroke4 {fill: #FFFFFF;}
        .stroke5 {fill: #FFFFFF;}
        .stroke6 {fill: #FFFFFF;}
        .stroke7 {fill: #FFFFFF;}
        .stroke8 {fill: #FFFFFF;}
        .stroke9 {fill: #FFFFFF;}
        .stroke10 {fill: #FFFFFF;}
        .stroke11 {fill: #FFFFFF;}
        .stroke12 {fill: #FFFFFF;}
        .stroke13 {fill: #FFFFFF;}
        .stroke14 {fill: #FFFFFF;}
        .stroke15 {fill: #FFFFFF;}
        .stroke16 {fill: #FFFFFF;}
        .stroke17 {fill: #FFFFFF;}
        .stroke18 {fill: #FFFFFF;}
        .stroke19 {fill: #FFFFFF;}
        .stroke20 {fill: #FFFFFF;}
        text {
            font-family: Helvetica;
            font-size: 50px;
            fill: #FFFFFF;}
            paint-order: stroke;
            stroke: #000000;
            stroke-width: 4px;
            stroke-linecap: butt;
            stroke-linejoin: miter;
            font-weight: 800;
        }
    </style>

    <path d="M 317 465 Q 318 338 155 190 Q 136 178 79 126 Q 67 110 85 113 Q 110 114 146 137 Q 258 209 325 305 Q 368 363 406 409 Q 419 422 404 441 Q 355 486 329 484 Q 316 483 317 465 Z" class="stroke1"/>
    <path d="M 446 687 Q 507 636 530 577 Q 608 343 711 190 Q 732 163 846 151 Q 892 147 958 141 Q 983 140 984 146 Q 984 152 963 163 Q 756 269 675 396 Q 621 480 551 644 Q 530 690 483 702 Q 449 709 445 702 Q 438 692 446 687 Z" class="stroke2"/>
</g></svg>