<svg version="1.1" viewBox="0 0 1024 1024" xmlns="http://www.w3.org/2000/svg">
  <g transform="scale(1, -1) translate(0, -900)">
    <style type="text/css">
        .stroke1 {fill: #FFFFFF;}
        .stroke2 {fill: #FFFFFF;}
        .stroke3 {fill: #FFFFFF;}
        .stroke4 {fill: #FFFFFF;}
        .stroke5 {fill: #FFFFFF;}
        .stroke6 {fill: #FFFFFF;}
        .stroke7 {fill: #FFFFFF;}
        .stroke8 {fill: #FFFFFF;}
        .stroke9 {fill: #FFFFFF;}
        .stroke10 {fill: #FFFFFF;}
        .stroke11 {fill: #FFFFFF;}
        .stroke12 {fill: #FFFFFF;}
        .stroke13 {fill: #FFFFFF;}
        .stroke14 {fill: #FFFFFF;}
        .stroke15 {fill: #FFFFFF;}
        .stroke16 {fill: #FFFFFF;}
        .stroke17 {fill: #FFFFFF;}
        .stroke18 {fill: #FFFFFF;}
        .stroke19 {fill: #FFFFFF;}
        .stroke20 {fill: #FFFFFF;}
        text {
            font-family: Helvetica;
            font-size: 50px;
            fill: #FFFFFF;}
            paint-order: stroke;
            stroke: #000000;
            stroke-width: 4px;
            stroke-linecap: butt;
            stroke-linejoin: miter;
            font-weight: 800;
        }
    </style>

    <path d="M 441 644 Q 484 599 529 546 Q 542 530 558 529 Q 570 528 577 541 Q 584 556 579 588 Q 572 639 443 695 Q 427 701 420 699 Q 414 696 414 682 Q 417 670 441 644 Z" class="stroke1"/>
    <path d="M 403 190 Q 390 187 391 169 Q 404 88 436 70 Q 442 63 453 64 Q 462 65 464 91 Q 471 133 591 395 Q 600 411 599 418 Q 598 428 589 422 Q 579 416 447 231 Q 432 210 403 190 Z" class="stroke2"/>
</g></svg>