<svg version="1.1" viewBox="0 0 1024 1024" xmlns="http://www.w3.org/2000/svg">
  <g transform="scale(1, -1) translate(0, -900)">
    <style type="text/css">
        .stroke1 {fill: #FFFFFF;}
        .stroke2 {fill: #FFFFFF;}
        .stroke3 {fill: #FFFFFF;}
        .stroke4 {fill: #FFFFFF;}
        .stroke5 {fill: #FFFFFF;}
        .stroke6 {fill: #FFFFFF;}
        .stroke7 {fill: #FFFFFF;}
        .stroke8 {fill: #FFFFFF;}
        .stroke9 {fill: #FFFFFF;}
        .stroke10 {fill: #FFFFFF;}
        .stroke11 {fill: #FFFFFF;}
        .stroke12 {fill: #FFFFFF;}
        .stroke13 {fill: #FFFFFF;}
        .stroke14 {fill: #FFFFFF;}
        .stroke15 {fill: #FFFFFF;}
        .stroke16 {fill: #FFFFFF;}
        .stroke17 {fill: #FFFFFF;}
        .stroke18 {fill: #FFFFFF;}
        .stroke19 {fill: #FFFFFF;}
        .stroke20 {fill: #FFFFFF;}
        text {
            font-family: Helvetica;
            font-size: 50px;
            fill: #FFFFFF;}
            paint-order: stroke;
            stroke: #000000;
            stroke-width: 4px;
            stroke-linecap: butt;
            stroke-linejoin: miter;
            font-weight: 800;
        }
    </style>

    <path d="M 368 617 Q 399 542 374 347 Q 365 308 395 274 Q 405 264 415 274 Q 433 301 434 382 Q 434 539 442 586 Q 449 608 428 620 Q 388 647 373 639 Q 364 632 368 617 Z" class="stroke1"/>
    <path d="M 569 703 Q 573 667 578 123 Q 578 101 565 91 Q 556 84 534 91 Q 507 98 482 103 Q 448 115 451 104 Q 452 97 473 82 Q 543 30 560 -1 Q 581 -37 598 -37 Q 613 -38 628 -2 Q 646 46 642 122 Q 623 357 626 593 Q 627 684 641 732 Q 657 763 600 785 Q 564 804 545 796 Q 526 789 544 766 Q 566 738 569 703 Z" class="stroke2"/>
</g></svg>