<svg version="1.1" viewBox="0 0 1024 1024" xmlns="http://www.w3.org/2000/svg">
  <g transform="scale(1, -1) translate(0, -900)">
    <style type="text/css">
        .stroke1 {fill: #FFFFFF;}
        .stroke2 {fill: #FFFFFF;}
        .stroke3 {fill: #FFFFFF;}
        .stroke4 {fill: #FFFFFF;}
        .stroke5 {fill: #FFFFFF;}
        .stroke6 {fill: #FFFFFF;}
        .stroke7 {fill: #FFFFFF;}
        .stroke8 {fill: #FFFFFF;}
        .stroke9 {fill: #FFFFFF;}
        .stroke10 {fill: #FFFFFF;}
        .stroke11 {fill: #FFFFFF;}
        .stroke12 {fill: #FFFFFF;}
        .stroke13 {fill: #FFFFFF;}
        .stroke14 {fill: #FFFFFF;}
        .stroke15 {fill: #FFFFFF;}
        .stroke16 {fill: #FFFFFF;}
        .stroke17 {fill: #FFFFFF;}
        .stroke18 {fill: #FFFFFF;}
        .stroke19 {fill: #FFFFFF;}
        .stroke20 {fill: #FFFFFF;}
        text {
            font-family: Helvetica;
            font-size: 50px;
            fill: #FFFFFF;}
            paint-order: stroke;
            stroke: #000000;
            stroke-width: 4px;
            stroke-linecap: butt;
            stroke-linejoin: miter;
            font-weight: 800;
        }
    </style>

    <path d="M 343 588 Q 376 631 412 684 Q 434 721 453 740 Q 463 750 458 764 Q 454 777 426 800 Q 399 818 381 818 Q 362 817 370 794 Q 391 748 298 605 Q 255 539 195 466 Q 185 456 183 450 Q 179 440 193 442 Q 223 445 313 551 Q 317 557 324 564 L 343 588 Z" class="stroke1"/>
    <path d="M 618 69 Q 600 63 500 91 Q 490 92 491 88 Q 491 84 502 76 Q 557 33 585 1 Q 600 -20 614 -17 Q 636 -20 659 3 Q 741 66 768 228 Q 789 339 803 508 Q 804 547 830 575 Q 843 588 843 597 Q 842 606 822 620 Q 795 642 758 654 Q 737 663 667 643 Q 642 639 608 630 Q 460 599 343 588 C 313 585 294 569 324 564 Q 327 564 329 563 Q 366 553 409 561 Q 521 576 608 591 Q 726 609 739 593 Q 757 551 728 317 Q 707 185 661 107 Q 642 70 618 69 Z" class="stroke2"/>
</g></svg>