<svg version="1.1" viewBox="0 0 1024 1024" xmlns="http://www.w3.org/2000/svg">
  <g transform="scale(1, -1) translate(0, -900)">
    <style type="text/css">
        .stroke1 {fill: #FFFFFF;}
        .stroke2 {fill: #FFFFFF;}
        .stroke3 {fill: #FFFFFF;}
        .stroke4 {fill: #FFFFFF;}
        .stroke5 {fill: #FFFFFF;}
        .stroke6 {fill: #FFFFFF;}
        .stroke7 {fill: #FFFFFF;}
        .stroke8 {fill: #FFFFFF;}
        .stroke9 {fill: #FFFFFF;}
        .stroke10 {fill: #FFFFFF;}
        .stroke11 {fill: #FFFFFF;}
        .stroke12 {fill: #FFFFFF;}
        .stroke13 {fill: #FFFFFF;}
        .stroke14 {fill: #FFFFFF;}
        .stroke15 {fill: #FFFFFF;}
        .stroke16 {fill: #FFFFFF;}
        .stroke17 {fill: #FFFFFF;}
        .stroke18 {fill: #FFFFFF;}
        .stroke19 {fill: #FFFFFF;}
        .stroke20 {fill: #FFFFFF;}
        text {
            font-family: Helvetica;
            font-size: 50px;
            fill: #FFFFFF;}
            paint-order: stroke;
            stroke: #000000;
            stroke-width: 4px;
            stroke-linecap: butt;
            stroke-linejoin: miter;
            font-weight: 800;
        }
    </style>

    <path d="M 418 80 Q 406 41 436 -32 Q 443 -51 452 -55 Q 459 -62 467 -53 Q 497 -32 496 37 Q 495 89 497 567 Q 497 666 515 733 Q 525 749 521 765 Q 514 775 451 812 Q 426 831 402 813 Q 396 807 404 791 Q 434 749 441 652 Q 450 250 429 129 Q 425 105 418 80 Z" class="stroke1"/>
    <path d="M 558 499 Q 657 448 780 371 Q 804 353 821 353 Q 831 354 837 367 Q 846 386 820 430 Q 783 493 551 533 Q 539 536 540 522 Q 544 506 558 499 Z" class="stroke2"/>
</g></svg>