<svg version="1.1" viewBox="0 0 1024 1024" xmlns="http://www.w3.org/2000/svg">
  <g transform="scale(1, -1) translate(0, -900)">
    <style type="text/css">
        .stroke1 {fill: #FFFFFF;}
        .stroke2 {fill: #FFFFFF;}
        .stroke3 {fill: #FFFFFF;}
        .stroke4 {fill: #FFFFFF;}
        .stroke5 {fill: #FFFFFF;}
        .stroke6 {fill: #FFFFFF;}
        .stroke7 {fill: #FFFFFF;}
        .stroke8 {fill: #FFFFFF;}
        .stroke9 {fill: #FFFFFF;}
        .stroke10 {fill: #FFFFFF;}
        .stroke11 {fill: #FFFFFF;}
        .stroke12 {fill: #FFFFFF;}
        .stroke13 {fill: #FFFFFF;}
        .stroke14 {fill: #FFFFFF;}
        .stroke15 {fill: #FFFFFF;}
        .stroke16 {fill: #FFFFFF;}
        .stroke17 {fill: #FFFFFF;}
        .stroke18 {fill: #FFFFFF;}
        .stroke19 {fill: #FFFFFF;}
        .stroke20 {fill: #FFFFFF;}
        text {
            font-family: Helvetica;
            font-size: 50px;
            fill: #FFFFFF;}
            paint-order: stroke;
            stroke: #000000;
            stroke-width: 4px;
            stroke-linecap: butt;
            stroke-linejoin: miter;
            font-weight: 800;
        }
    </style>

    <path d="M 499 695 Q 503 661 501 132 Q 500 110 488 101 Q 478 92 448 100 Q 414 107 383 113 Q 347 123 351 112 Q 352 105 375 91 Q 456 42 479 10 Q 504 -26 523 -25 Q 538 -26 552 11 Q 568 57 564 133 Q 531 583 572 723 Q 590 754 532 778 Q 498 797 477 789 Q 459 782 475 759 Q 497 731 499 695 Z" class="stroke1"/>
    <path d="M 266 475 Q 223 408 170 349 Q 160 339 155 320 Q 148 292 154 273 Q 158 251 185 261 Q 213 274 237 308 Q 273 357 284 404 Q 297 441 293 470 Q 289 480 283 484 Q 273 484 266 475 Z" class="stroke2"/>
    <path d="M 706 472 Q 769 411 842 323 Q 860 299 878 293 Q 888 292 897 303 Q 913 318 900 370 Q 887 431 709 508 Q 699 515 696 500 Q 695 484 706 472 Z" class="stroke3"/>
</g></svg>