<svg version="1.1" viewBox="0 0 1024 1024" xmlns="http://www.w3.org/2000/svg">
  <g transform="scale(1, -1) translate(0, -900)">
    <style type="text/css">
        .stroke1 {fill: #FFFFFF;}
        .stroke2 {fill: #FFFFFF;}
        .stroke3 {fill: #FFFFFF;}
        .stroke4 {fill: #FFFFFF;}
        .stroke5 {fill: #FFFFFF;}
        .stroke6 {fill: #FFFFFF;}
        .stroke7 {fill: #FFFFFF;}
        .stroke8 {fill: #FFFFFF;}
        .stroke9 {fill: #FFFFFF;}
        .stroke10 {fill: #FFFFFF;}
        .stroke11 {fill: #FFFFFF;}
        .stroke12 {fill: #FFFFFF;}
        .stroke13 {fill: #FFFFFF;}
        .stroke14 {fill: #FFFFFF;}
        .stroke15 {fill: #FFFFFF;}
        .stroke16 {fill: #FFFFFF;}
        .stroke17 {fill: #FFFFFF;}
        .stroke18 {fill: #FFFFFF;}
        .stroke19 {fill: #FFFFFF;}
        .stroke20 {fill: #FFFFFF;}
        text {
            font-family: Helvetica;
            font-size: 50px;
            fill: #FFFFFF;}
            paint-order: stroke;
            stroke: #000000;
            stroke-width: 4px;
            stroke-linecap: butt;
            stroke-linejoin: miter;
            font-weight: 800;
        }
    </style>

    <path d="M 444 343 Q 444 389 446 422 L 449 454 Q 450 479 454 487 Q 458 506 446 518 Q 427 534 404 545 Q 392 549 384 545 Q 377 541 381 527 Q 394 502 399 474 Q 402 447 407 334 C 408 304 444 313 444 343 Z" class="stroke1"/>
    <path d="M 446 422 Q 446 423 448 423 Q 503 436 546 444 Q 567 450 558 461 Q 546 474 522 475 Q 480 478 449 454 C 425 436 418 411 446 422 Z" class="stroke2"/>
    <path d="M 437 307 Q 567 332 570 334 Q 571 337 574 339 Q 575 348 556 356 Q 529 375 448 344 Q 445 344 444 343 L 407 334 Q 379 330 353 324 Q 325 320 295 315 Q 271 311 290 298 Q 314 280 351 288 Q 373 294 401 299 L 437 307 Z" class="stroke3"/>
    <path d="M 401 299 Q 410 268 410 188 Q 410 125 403 110 Q 402 100 381 102 Q 362 106 341 109 Q 332 110 331 105 Q 330 101 338 92 Q 387 52 403 28 Q 415 18 423 19 Q 432 22 442 49 Q 455 76 453 126 Q 452 217 453 251 Q 459 284 437 307 C 418 330 394 328 401 299 Z" class="stroke4"/>
    <path d="M 320 238 Q 301 207 276 179 Q 258 158 268 127 Q 272 112 290 120 Q 329 141 335 191 Q 342 216 338 236 Q 335 243 331 245 Q 324 244 320 238 Z" class="stroke5"/>
    <path d="M 485 233 Q 530 173 548 171 Q 558 170 565 184 Q 566 194 560 212 Q 553 225 534 235 Q 503 251 490 255 Q 483 256 481 247 Q 480 240 485 233 Z" class="stroke6"/>
</g></svg>