<svg version="1.1" viewBox="0 0 1024 1024" xmlns="http://www.w3.org/2000/svg">
  <g transform="scale(1, -1) translate(0, -900)">
    <style type="text/css">
        .stroke1 {fill: #FFFFFF;}
        .stroke2 {fill: #FFFFFF;}
        .stroke3 {fill: #FFFFFF;}
        .stroke4 {fill: #FFFFFF;}
        .stroke5 {fill: #FFFFFF;}
        .stroke6 {fill: #FFFFFF;}
        .stroke7 {fill: #FFFFFF;}
        .stroke8 {fill: #FFFFFF;}
        .stroke9 {fill: #FFFFFF;}
        .stroke10 {fill: #FFFFFF;}
        .stroke11 {fill: #FFFFFF;}
        .stroke12 {fill: #FFFFFF;}
        .stroke13 {fill: #FFFFFF;}
        .stroke14 {fill: #FFFFFF;}
        .stroke15 {fill: #FFFFFF;}
        .stroke16 {fill: #FFFFFF;}
        .stroke17 {fill: #FFFFFF;}
        .stroke18 {fill: #FFFFFF;}
        .stroke19 {fill: #FFFFFF;}
        .stroke20 {fill: #FFFFFF;}
        text {
            font-family: Helvetica;
            font-size: 50px;
            fill: #FFFFFF;}
            paint-order: stroke;
            stroke: #000000;
            stroke-width: 4px;
            stroke-linecap: butt;
            stroke-linejoin: miter;
            font-weight: 800;
        }
    </style>

    <path d="M 261 774 Q 257 773 255 772 Q 248 770 239 755 Q 213 705 175 659 Q 151 621 167 586 Q 173 566 196 576 Q 257 615 268 700 Q 270 710 272 722 Q 278 770 261 774 Z" class="stroke1"/>
    <path d="M 586 797 Q 586 792 586 789 Q 588 780 606 762 Q 663 706 702 662 Q 733 621 753 646 Q 765 659 753 706 Q 739 763 598 804 Q 588 809 586 797 Z" class="stroke2"/>
    <path d="M 305 547 Q 333 472 308 345 Q 292 286 256 214 Q 224 147 159 88 Q 108 49 98 35 Q 98 26 108 25 Q 127 25 151 40 Q 202 71 237 102 Q 341 211 377 443 L 396 511 Q 406 533 382 547 Q 327 578 311 576 Q 288 572 305 547 Z" class="stroke3"/>
    <path d="M 535 519 Q 538 449 537 326 Q 518 123 572 61 Q 617 7 809 8 Q 893 10 954 32 Q 995 45 980 76 Q 975 88 970 102 Q 955 144 944 210 Q 939 247 929 257 Q 919 267 915 246 Q 886 141 872 121 Q 865 108 849 98 Q 823 71 696 79 Q 621 85 602 129 L 600 131 Q 578 192 590 368 Q 600 504 617 566 Q 630 601 541 653 Q 518 666 498 655 Q 486 648 509 615 Q 535 576 535 519 Z" class="stroke4"/>
</g></svg>