<svg version="1.1" viewBox="0 0 1024 1024" xmlns="http://www.w3.org/2000/svg">
  <g transform="scale(1, -1) translate(0, -900)">
    <style type="text/css">
        .stroke1 {fill: #FFFFFF;}
        .stroke2 {fill: #FFFFFF;}
        .stroke3 {fill: #FFFFFF;}
        .stroke4 {fill: #FFFFFF;}
        .stroke5 {fill: #FFFFFF;}
        .stroke6 {fill: #FFFFFF;}
        .stroke7 {fill: #FFFFFF;}
        .stroke8 {fill: #FFFFFF;}
        .stroke9 {fill: #FFFFFF;}
        .stroke10 {fill: #FFFFFF;}
        .stroke11 {fill: #FFFFFF;}
        .stroke12 {fill: #FFFFFF;}
        .stroke13 {fill: #FFFFFF;}
        .stroke14 {fill: #FFFFFF;}
        .stroke15 {fill: #FFFFFF;}
        .stroke16 {fill: #FFFFFF;}
        .stroke17 {fill: #FFFFFF;}
        .stroke18 {fill: #FFFFFF;}
        .stroke19 {fill: #FFFFFF;}
        .stroke20 {fill: #FFFFFF;}
        text {
            font-family: Helvetica;
            font-size: 50px;
            fill: #FFFFFF;}
            paint-order: stroke;
            stroke: #000000;
            stroke-width: 4px;
            stroke-linecap: butt;
            stroke-linejoin: miter;
            font-weight: 800;
        }
    </style>

    <path d="M 622 793 Q 598 812 581 815 Q 562 815 568 793 Q 589 721 386 517 Q 376 508 372 502 Q 368 492 381 493 Q 438 500 594 678 Q 609 708 643 732 Q 653 742 650 755 Q 647 768 622 793 Z" class="stroke1"/>
    <path d="M 634 553 Q 612 575 594 579 Q 576 580 580 558 Q 593 495 404 324 Q 392 317 389 311 Q 385 301 398 300 Q 461 309 602 448 Q 618 475 650 492 Q 660 499 659 514 Q 658 527 634 553 Z" class="stroke2"/>
    <path d="M 641 378 Q 631 231 449 87 Q 442 84 436 78 Q 385 38 263 -28 Q 253 -35 260 -40 Q 267 -44 282 -41 Q 363 -25 436 16 Q 565 79 678 261 Q 699 289 722 317 Q 732 326 729 339 Q 723 352 692 379 Q 670 398 658 397 Q 642 396 641 378 Z" class="stroke3"/>
</g></svg>