<svg version="1.1" viewBox="0 0 1024 1024" xmlns="http://www.w3.org/2000/svg">
  <g transform="scale(1, -1) translate(0, -900)">
    <style type="text/css">
        .stroke1 {fill: #FFFFFF;}
        .stroke2 {fill: #FFFFFF;}
        .stroke3 {fill: #FFFFFF;}
        .stroke4 {fill: #FFFFFF;}
        .stroke5 {fill: #FFFFFF;}
        .stroke6 {fill: #FFFFFF;}
        .stroke7 {fill: #FFFFFF;}
        .stroke8 {fill: #FFFFFF;}
        .stroke9 {fill: #FFFFFF;}
        .stroke10 {fill: #FFFFFF;}
        .stroke11 {fill: #FFFFFF;}
        .stroke12 {fill: #FFFFFF;}
        .stroke13 {fill: #FFFFFF;}
        .stroke14 {fill: #FFFFFF;}
        .stroke15 {fill: #FFFFFF;}
        .stroke16 {fill: #FFFFFF;}
        .stroke17 {fill: #FFFFFF;}
        .stroke18 {fill: #FFFFFF;}
        .stroke19 {fill: #FFFFFF;}
        .stroke20 {fill: #FFFFFF;}
        text {
            font-family: Helvetica;
            font-size: 50px;
            fill: #FFFFFF;}
            paint-order: stroke;
            stroke: #000000;
            stroke-width: 4px;
            stroke-linecap: butt;
            stroke-linejoin: miter;
            font-weight: 800;
        }
    </style>

    <path d="M 129 504 Q 114 438 88 378 Q 75 344 95 315 Q 105 299 123 314 Q 171 362 162 453 Q 162 484 152 507 Q 145 514 140 515 Q 133 512 129 504 Z" class="stroke1"/>
    <path d="M 289 575 Q 295 571 304 566 Q 337 547 373 522 Q 385 515 396 517 Q 403 518 406 528 Q 407 540 398 560 Q 386 588 295 600 Q 292 601 290 600 C 260 599 264 591 289 575 Z" class="stroke2"/>
    <path d="M 290 600 Q 294 675 310 728 Q 319 743 316 756 Q 309 766 254 801 Q 230 819 209 803 Q 205 799 210 782 Q 243 733 243 683 Q 244 610 245 527 Q 241 382 236 224 Q 232 145 209 73 Q 199 36 223 -30 Q 230 -48 238 -51 Q 244 -58 252 -49 Q 279 -33 280 33 Q 279 85 289 562 Q 289 569 289 575 L 290 600 Z" class="stroke3"/>
    <path d="M 624 466 Q 702 487 849 510 Q 861 509 870 523 Q 870 536 845 546 Q 806 568 739 543 Q 667 525 628 512 L 568 498 Q 484 486 412 471 Q 381 467 405 448 Q 441 424 484 433 Q 518 442 563 452 L 624 466 Z" class="stroke4"/>
    <path d="M 614 396 Q 618 432 624 466 L 628 512 Q 629 528 630 543 Q 633 657 656 721 Q 663 734 652 742 Q 633 761 592 777 Q 568 787 550 782 Q 528 773 545 754 Q 576 721 576 687 Q 576 584 568 498 L 563 452 Q 539 218 416 94 Q 385 64 334 27 Q 321 20 318 15 Q 314 8 331 7 Q 397 7 511 120 Q 527 141 542 162 Q 581 234 605 349 L 614 396 Z" class="stroke5"/>
    <path d="M 605 349 Q 758 54 801 37 Q 820 37 944 28 Q 971 27 972 33 Q 973 40 946 58 Q 805 133 758 191 Q 674 288 614 396 C 599 422 591 376 605 349 Z" class="stroke6"/>
</g></svg>