<svg version="1.1" viewBox="0 0 1024 1024" xmlns="http://www.w3.org/2000/svg">
  <g transform="scale(1, -1) translate(0, -900)">
    <style type="text/css">
        .stroke1 {fill: #FFFFFF;}
        .stroke2 {fill: #FFFFFF;}
        .stroke3 {fill: #FFFFFF;}
        .stroke4 {fill: #FFFFFF;}
        .stroke5 {fill: #FFFFFF;}
        .stroke6 {fill: #FFFFFF;}
        .stroke7 {fill: #FFFFFF;}
        .stroke8 {fill: #FFFFFF;}
        .stroke9 {fill: #FFFFFF;}
        .stroke10 {fill: #FFFFFF;}
        .stroke11 {fill: #FFFFFF;}
        .stroke12 {fill: #FFFFFF;}
        .stroke13 {fill: #FFFFFF;}
        .stroke14 {fill: #FFFFFF;}
        .stroke15 {fill: #FFFFFF;}
        .stroke16 {fill: #FFFFFF;}
        .stroke17 {fill: #FFFFFF;}
        .stroke18 {fill: #FFFFFF;}
        .stroke19 {fill: #FFFFFF;}
        .stroke20 {fill: #FFFFFF;}
        text {
            font-family: Helvetica;
            font-size: 50px;
            fill: #FFFFFF;}
            paint-order: stroke;
            stroke: #000000;
            stroke-width: 4px;
            stroke-linecap: butt;
            stroke-linejoin: miter;
            font-weight: 800;
        }
    </style>

    <path d="M 515 783 Q 545 761 577 734 Q 593 721 612 723 Q 624 724 628 740 Q 632 758 619 791 Q 604 825 505 837 Q 486 838 480 836 Q 474 830 477 816 Q 483 803 515 783 Z" class="stroke1"/>
    <path d="M 362 610 Q 399 597 472 606 Q 595 627 725 647 Q 788 660 797 668 Q 807 677 803 686 Q 796 699 763 710 Q 729 717 625 686 Q 472 653 357 645 Q 350 645 348 643 C 318 638 333 618 362 610 Z" class="stroke2"/>
    <path d="M 279 350 Q 249 191 150 19 Q 146 12 143 6 Q 142 -4 152 -2 Q 188 5 258 131 Q 268 155 281 180 Q 339 321 350 504 Q 353 601 362 610 C 368 630 368 630 348 643 Q 300 676 278 667 Q 266 660 274 646 Q 293 619 294 548 Q 293 541 293 531 Q 293 455 284 386 L 279 350 Z" class="stroke3"/>
    <path d="M 150 512 Q 169 488 190 459 Q 200 444 216 442 Q 226 441 233 453 Q 240 466 236 496 Q 235 515 208 532 Q 144 565 132 563 Q 128 560 126 548 Q 127 536 150 512 Z" class="stroke4"/>
    <path d="M 284 386 Q 95 299 67 297 Q 54 294 54 284 Q 54 271 64 265 Q 88 252 121 240 Q 131 239 142 248 Q 164 273 279 350 C 304 367 311 399 284 386 Z" class="stroke5"/>
</g></svg>